# xmcd CD database file
#
# Track frame offsets:
#	150
#	10892
#	34204
#	52869
#	63511
#	83055
#	102118
#	124545
#	147028
#	162858
#	175166
#	208286
#	223451
#	246646
#	272811
#
# Disc length: 4034 seconds
#
# Revision: 0
# Processed by: cddbd v1.5.2PL0 Copyright (c) Steve Scherf et al.
# Submitted via: CDex 1.70beta2
#
DISCID=db0fc00f
DTITLE=Lil Darling - Unforgettable Ella
DYEAR=2004
DGENRE=Jazz
TTITLE0=This could be the start
TTITLE1=Stompin' at the savoy
TTITLE2=Mr. Paganini
TTITLE3=A tisket, a tasket 
TTITLE4='Round midnight
TTITLE5=Airmail special
TTITLE6=Like Someone In Love
TTITLE7=Cry me a river
TTITLE8=Puttin' on the ritz
TTITLE9=Skylark
TTITLE10=Night in Tunisia
TTITLE11=All the things you are
TTITLE12=Shiny stockines
TTITLE13=Over the rainbow
TTITLE14=It don't mean a thing
EXTD=YEAR: 2004
EXTT0=
EXTT1=
EXTT2=
EXTT3=
EXTT4=
EXTT5=
EXTT6=
EXTT7=
EXTT8=
EXTT9=
EXTT10=
EXTT11=
EXTT12=
EXTT13=
EXTT14=
PLAYORDER=
